<mxfile host="app.diagrams.net" agent="Mozilla/5.0 (Windows NT 10.0; Win64; x64) AppleWebKit/537.36 (KHTML, like Gecko) Chrome/137.0.0.0 Safari/537.36" version="27.1.1">
  <diagram id="C5RBs43oDa-KdzZeNtuy" name="Page-1">
    <mxGraphModel dx="1342" dy="675" grid="1" gridSize="10" guides="1" tooltips="1" connect="1" arrows="1" fold="1" page="1" pageScale="1" pageWidth="827" pageHeight="1169" math="0" shadow="0">
      <root>
        <mxCell id="WIyWlLk6GJQsqaUBKTNV-0" />
        <mxCell id="WIyWlLk6GJQsqaUBKTNV-1" parent="WIyWlLk6GJQsqaUBKTNV-0" />
        <mxCell id="_NMeENpPA0-5k_gsboYM-0" value="Aluno" style="swimlane;fontStyle=1;align=center;verticalAlign=top;childLayout=stackLayout;horizontal=1;startSize=26;horizontalStack=0;resizeParent=1;resizeParentMax=0;resizeLast=0;collapsible=1;marginBottom=0;whiteSpace=wrap;html=1;" vertex="1" parent="WIyWlLk6GJQsqaUBKTNV-1">
          <mxGeometry x="80" y="8" width="160" height="130" as="geometry" />
        </mxCell>
        <mxCell id="_NMeENpPA0-5k_gsboYM-1" value="+ nome: String" style="text;strokeColor=none;fillColor=none;align=left;verticalAlign=top;spacingLeft=4;spacingRight=4;overflow=hidden;rotatable=0;points=[[0,0.5],[1,0.5]];portConstraint=eastwest;whiteSpace=wrap;html=1;" vertex="1" parent="_NMeENpPA0-5k_gsboYM-0">
          <mxGeometry y="26" width="160" height="26" as="geometry" />
        </mxCell>
        <mxCell id="_NMeENpPA0-5k_gsboYM-4" value="+ emailInstitucional: String" style="text;strokeColor=none;fillColor=none;align=left;verticalAlign=top;spacingLeft=4;spacingRight=4;overflow=hidden;rotatable=0;points=[[0,0.5],[1,0.5]];portConstraint=eastwest;whiteSpace=wrap;html=1;" vertex="1" parent="_NMeENpPA0-5k_gsboYM-0">
          <mxGeometry y="52" width="160" height="26" as="geometry" />
        </mxCell>
        <mxCell id="_NMeENpPA0-5k_gsboYM-2" value="" style="line;strokeWidth=1;fillColor=none;align=left;verticalAlign=middle;spacingTop=-1;spacingLeft=3;spacingRight=3;rotatable=0;labelPosition=right;points=[];portConstraint=eastwest;strokeColor=inherit;" vertex="1" parent="_NMeENpPA0-5k_gsboYM-0">
          <mxGeometry y="78" width="160" height="8" as="geometry" />
        </mxCell>
        <mxCell id="_NMeENpPA0-5k_gsboYM-3" value="+ receberNotificacao(vaga: Vaga): void" style="text;strokeColor=none;fillColor=none;align=left;verticalAlign=top;spacingLeft=4;spacingRight=4;overflow=hidden;rotatable=0;points=[[0,0.5],[1,0.5]];portConstraint=eastwest;whiteSpace=wrap;html=1;" vertex="1" parent="_NMeENpPA0-5k_gsboYM-0">
          <mxGeometry y="86" width="160" height="44" as="geometry" />
        </mxCell>
        <mxCell id="_NMeENpPA0-5k_gsboYM-10" value="" style="edgeStyle=orthogonalEdgeStyle;rounded=0;orthogonalLoop=1;jettySize=auto;html=1;entryX=0.495;entryY=0.978;entryDx=0;entryDy=0;entryPerimeter=0;" edge="1" parent="WIyWlLk6GJQsqaUBKTNV-1" source="_NMeENpPA0-5k_gsboYM-0" target="_NMeENpPA0-5k_gsboYM-43">
          <mxGeometry relative="1" as="geometry">
            <mxPoint x="190" y="-20.000000000000227" as="targetPoint" />
          </mxGeometry>
        </mxCell>
        <mxCell id="_NMeENpPA0-5k_gsboYM-12" value="RepresentanteDeTurma" style="swimlane;fontStyle=1;align=center;verticalAlign=top;childLayout=stackLayout;horizontal=1;startSize=26;horizontalStack=0;resizeParent=1;resizeParentMax=0;resizeLast=0;collapsible=1;marginBottom=0;whiteSpace=wrap;html=1;" vertex="1" parent="WIyWlLk6GJQsqaUBKTNV-1">
          <mxGeometry x="334" y="8" width="160" height="114" as="geometry" />
        </mxCell>
        <mxCell id="_NMeENpPA0-5k_gsboYM-16" value="+ postarVaga(vaga: Vaga): void" style="text;strokeColor=none;fillColor=none;align=left;verticalAlign=top;spacingLeft=4;spacingRight=4;overflow=hidden;rotatable=0;points=[[0,0.5],[1,0.5]];portConstraint=eastwest;whiteSpace=wrap;html=1;" vertex="1" parent="_NMeENpPA0-5k_gsboYM-12">
          <mxGeometry y="26" width="160" height="44" as="geometry" />
        </mxCell>
        <mxCell id="_NMeENpPA0-5k_gsboYM-18" value="+ cadastrarAluno(aluno: Aluno): void" style="text;strokeColor=none;fillColor=none;align=left;verticalAlign=top;spacingLeft=4;spacingRight=4;overflow=hidden;rotatable=0;points=[[0,0.5],[1,0.5]];portConstraint=eastwest;whiteSpace=wrap;html=1;" vertex="1" parent="_NMeENpPA0-5k_gsboYM-12">
          <mxGeometry y="70" width="160" height="44" as="geometry" />
        </mxCell>
        <mxCell id="_NMeENpPA0-5k_gsboYM-19" value="Coordenador" style="swimlane;fontStyle=1;align=center;verticalAlign=top;childLayout=stackLayout;horizontal=1;startSize=26;horizontalStack=0;resizeParent=1;resizeParentMax=0;resizeLast=0;collapsible=1;marginBottom=0;whiteSpace=wrap;html=1;" vertex="1" parent="WIyWlLk6GJQsqaUBKTNV-1">
          <mxGeometry x="545" y="10" width="240" height="70" as="geometry" />
        </mxCell>
        <mxCell id="_NMeENpPA0-5k_gsboYM-22" value="+ cadastrarRepresentante(representante: RepresentanteDeTurma): void" style="text;strokeColor=none;fillColor=none;align=left;verticalAlign=top;spacingLeft=4;spacingRight=4;overflow=hidden;rotatable=0;points=[[0,0.5],[1,0.5]];portConstraint=eastwest;whiteSpace=wrap;html=1;" vertex="1" parent="_NMeENpPA0-5k_gsboYM-19">
          <mxGeometry y="26" width="240" height="44" as="geometry" />
        </mxCell>
        <mxCell id="_NMeENpPA0-5k_gsboYM-23" value="Vaga" style="swimlane;fontStyle=0;childLayout=stackLayout;horizontal=1;startSize=26;fillColor=none;horizontalStack=0;resizeParent=1;resizeParentMax=0;resizeLast=0;collapsible=1;marginBottom=0;whiteSpace=wrap;html=1;" vertex="1" parent="WIyWlLk6GJQsqaUBKTNV-1">
          <mxGeometry x="390" y="530" width="140" height="130" as="geometry" />
        </mxCell>
        <mxCell id="_NMeENpPA0-5k_gsboYM-24" value="- titulo: String" style="text;strokeColor=none;fillColor=none;align=left;verticalAlign=top;spacingLeft=4;spacingRight=4;overflow=hidden;rotatable=0;points=[[0,0.5],[1,0.5]];portConstraint=eastwest;whiteSpace=wrap;html=1;" vertex="1" parent="_NMeENpPA0-5k_gsboYM-23">
          <mxGeometry y="26" width="140" height="26" as="geometry" />
        </mxCell>
        <mxCell id="_NMeENpPA0-5k_gsboYM-25" value="- descricao: String" style="text;strokeColor=none;fillColor=none;align=left;verticalAlign=top;spacingLeft=4;spacingRight=4;overflow=hidden;rotatable=0;points=[[0,0.5],[1,0.5]];portConstraint=eastwest;whiteSpace=wrap;html=1;" vertex="1" parent="_NMeENpPA0-5k_gsboYM-23">
          <mxGeometry y="52" width="140" height="26" as="geometry" />
        </mxCell>
        <mxCell id="_NMeENpPA0-5k_gsboYM-26" value="- empresa: String" style="text;strokeColor=none;fillColor=none;align=left;verticalAlign=top;spacingLeft=4;spacingRight=4;overflow=hidden;rotatable=0;points=[[0,0.5],[1,0.5]];portConstraint=eastwest;whiteSpace=wrap;html=1;" vertex="1" parent="_NMeENpPA0-5k_gsboYM-23">
          <mxGeometry y="78" width="140" height="26" as="geometry" />
        </mxCell>
        <mxCell id="_NMeENpPA0-5k_gsboYM-27" value="- data: Date" style="text;strokeColor=none;fillColor=none;align=left;verticalAlign=top;spacingLeft=4;spacingRight=4;overflow=hidden;rotatable=0;points=[[0,0.5],[1,0.5]];portConstraint=eastwest;whiteSpace=wrap;html=1;" vertex="1" parent="_NMeENpPA0-5k_gsboYM-23">
          <mxGeometry y="104" width="140" height="26" as="geometry" />
        </mxCell>
        <mxCell id="_NMeENpPA0-5k_gsboYM-28" value="SistemaDeVagas" style="swimlane;fontStyle=1;align=center;verticalAlign=top;childLayout=stackLayout;horizontal=1;startSize=26;horizontalStack=0;resizeParent=1;resizeParentMax=0;resizeLast=0;collapsible=1;marginBottom=0;whiteSpace=wrap;html=1;" vertex="1" parent="WIyWlLk6GJQsqaUBKTNV-1">
          <mxGeometry x="270" y="200" width="207" height="262" as="geometry" />
        </mxCell>
        <mxCell id="_NMeENpPA0-5k_gsboYM-29" value="- vagas: List&amp;lt;Vaga&amp;gt;" style="text;strokeColor=none;fillColor=none;align=left;verticalAlign=top;spacingLeft=4;spacingRight=4;overflow=hidden;rotatable=0;points=[[0,0.5],[1,0.5]];portConstraint=eastwest;whiteSpace=wrap;html=1;" vertex="1" parent="_NMeENpPA0-5k_gsboYM-28">
          <mxGeometry y="26" width="207" height="26" as="geometry" />
        </mxCell>
        <mxCell id="_NMeENpPA0-5k_gsboYM-32" value="- observers: List&amp;lt;Observer&amp;gt;" style="text;strokeColor=none;fillColor=none;align=left;verticalAlign=top;spacingLeft=4;spacingRight=4;overflow=hidden;rotatable=0;points=[[0,0.5],[1,0.5]];portConstraint=eastwest;whiteSpace=wrap;html=1;" vertex="1" parent="_NMeENpPA0-5k_gsboYM-28">
          <mxGeometry y="52" width="207" height="26" as="geometry" />
        </mxCell>
        <mxCell id="_NMeENpPA0-5k_gsboYM-30" value="" style="line;strokeWidth=1;fillColor=none;align=left;verticalAlign=middle;spacingTop=-1;spacingLeft=3;spacingRight=3;rotatable=0;labelPosition=right;points=[];portConstraint=eastwest;strokeColor=inherit;" vertex="1" parent="_NMeENpPA0-5k_gsboYM-28">
          <mxGeometry y="78" width="207" height="8" as="geometry" />
        </mxCell>
        <mxCell id="_NMeENpPA0-5k_gsboYM-31" value="+ adicionarVaga(vaga: Vaga): void" style="text;strokeColor=none;fillColor=none;align=left;verticalAlign=top;spacingLeft=4;spacingRight=4;overflow=hidden;rotatable=0;points=[[0,0.5],[1,0.5]];portConstraint=eastwest;whiteSpace=wrap;html=1;" vertex="1" parent="_NMeENpPA0-5k_gsboYM-28">
          <mxGeometry y="86" width="207" height="26" as="geometry" />
        </mxCell>
        <mxCell id="_NMeENpPA0-5k_gsboYM-33" value="+ removerVaga(vaga: Vaga): void" style="text;strokeColor=none;fillColor=none;align=left;verticalAlign=top;spacingLeft=4;spacingRight=4;overflow=hidden;rotatable=0;points=[[0,0.5],[1,0.5]];portConstraint=eastwest;whiteSpace=wrap;html=1;" vertex="1" parent="_NMeENpPA0-5k_gsboYM-28">
          <mxGeometry y="112" width="207" height="26" as="geometry" />
        </mxCell>
        <mxCell id="_NMeENpPA0-5k_gsboYM-34" value="+ alterarVaga(vaga: Vaga): void" style="text;strokeColor=none;fillColor=none;align=left;verticalAlign=top;spacingLeft=4;spacingRight=4;overflow=hidden;rotatable=0;points=[[0,0.5],[1,0.5]];portConstraint=eastwest;whiteSpace=wrap;html=1;" vertex="1" parent="_NMeENpPA0-5k_gsboYM-28">
          <mxGeometry y="138" width="207" height="26" as="geometry" />
        </mxCell>
        <mxCell id="_NMeENpPA0-5k_gsboYM-35" value="+ adicionarObserver(observer: Observer): void" style="text;strokeColor=none;fillColor=none;align=left;verticalAlign=top;spacingLeft=4;spacingRight=4;overflow=hidden;rotatable=0;points=[[0,0.5],[1,0.5]];portConstraint=eastwest;whiteSpace=wrap;html=1;" vertex="1" parent="_NMeENpPA0-5k_gsboYM-28">
          <mxGeometry y="164" width="207" height="36" as="geometry" />
        </mxCell>
        <mxCell id="_NMeENpPA0-5k_gsboYM-36" value="+ removerObserver(observer: Observer): void" style="text;strokeColor=none;fillColor=none;align=left;verticalAlign=top;spacingLeft=4;spacingRight=4;overflow=hidden;rotatable=0;points=[[0,0.5],[1,0.5]];portConstraint=eastwest;whiteSpace=wrap;html=1;" vertex="1" parent="_NMeENpPA0-5k_gsboYM-28">
          <mxGeometry y="200" width="207" height="36" as="geometry" />
        </mxCell>
        <mxCell id="_NMeENpPA0-5k_gsboYM-37" value="+ notificarObservers(): void" style="text;strokeColor=none;fillColor=none;align=left;verticalAlign=top;spacingLeft=4;spacingRight=4;overflow=hidden;rotatable=0;points=[[0,0.5],[1,0.5]];portConstraint=eastwest;whiteSpace=wrap;html=1;" vertex="1" parent="_NMeENpPA0-5k_gsboYM-28">
          <mxGeometry y="236" width="207" height="26" as="geometry" />
        </mxCell>
        <mxCell id="_NMeENpPA0-5k_gsboYM-38" value="&amp;lt;&amp;lt; interface &amp;gt;&amp;gt;&lt;div&gt;VagasSubject&lt;/div&gt;" style="swimlane;fontStyle=0;childLayout=stackLayout;horizontal=1;startSize=26;fillColor=none;horizontalStack=0;resizeParent=1;resizeParentMax=0;resizeLast=0;collapsible=1;marginBottom=0;whiteSpace=wrap;html=1;" vertex="1" parent="WIyWlLk6GJQsqaUBKTNV-1">
          <mxGeometry x="20" y="360" width="190" height="126" as="geometry" />
        </mxCell>
        <mxCell id="_NMeENpPA0-5k_gsboYM-39" value="+ adicionarObserver(obs: Observer)" style="text;strokeColor=none;fillColor=none;align=left;verticalAlign=top;spacingLeft=4;spacingRight=4;overflow=hidden;rotatable=0;points=[[0,0.5],[1,0.5]];portConstraint=eastwest;whiteSpace=wrap;html=1;" vertex="1" parent="_NMeENpPA0-5k_gsboYM-38">
          <mxGeometry y="26" width="190" height="34" as="geometry" />
        </mxCell>
        <mxCell id="_NMeENpPA0-5k_gsboYM-40" value="+ removerObserver(obs: Observer)" style="text;strokeColor=none;fillColor=none;align=left;verticalAlign=top;spacingLeft=4;spacingRight=4;overflow=hidden;rotatable=0;points=[[0,0.5],[1,0.5]];portConstraint=eastwest;whiteSpace=wrap;html=1;" vertex="1" parent="_NMeENpPA0-5k_gsboYM-38">
          <mxGeometry y="60" width="190" height="40" as="geometry" />
        </mxCell>
        <mxCell id="_NMeENpPA0-5k_gsboYM-41" value="+ notificarObservers(): void" style="text;strokeColor=none;fillColor=none;align=left;verticalAlign=top;spacingLeft=4;spacingRight=4;overflow=hidden;rotatable=0;points=[[0,0.5],[1,0.5]];portConstraint=eastwest;whiteSpace=wrap;html=1;" vertex="1" parent="_NMeENpPA0-5k_gsboYM-38">
          <mxGeometry y="100" width="190" height="26" as="geometry" />
        </mxCell>
        <mxCell id="_NMeENpPA0-5k_gsboYM-42" value="&amp;lt;&amp;lt;interface&amp;gt;&amp;gt;&lt;div&gt;Observer&lt;/div&gt;" style="swimlane;fontStyle=0;childLayout=stackLayout;horizontal=1;startSize=26;fillColor=none;horizontalStack=0;resizeParent=1;resizeParentMax=0;resizeLast=0;collapsible=1;marginBottom=0;whiteSpace=wrap;html=1;" vertex="1" parent="WIyWlLk6GJQsqaUBKTNV-1">
          <mxGeometry x="60" y="220" width="140" height="70" as="geometry" />
        </mxCell>
        <mxCell id="_NMeENpPA0-5k_gsboYM-43" value="+ receberNotificacao&lt;div&gt;(vaga: Vaga): void&lt;/div&gt;" style="text;strokeColor=none;fillColor=none;align=left;verticalAlign=top;spacingLeft=4;spacingRight=4;overflow=hidden;rotatable=0;points=[[0,0.5],[1,0.5]];portConstraint=eastwest;whiteSpace=wrap;html=1;" vertex="1" parent="_NMeENpPA0-5k_gsboYM-42">
          <mxGeometry y="26" width="140" height="44" as="geometry" />
        </mxCell>
        <mxCell id="_NMeENpPA0-5k_gsboYM-46" value="LogSingleton" style="swimlane;fontStyle=1;align=center;verticalAlign=top;childLayout=stackLayout;horizontal=1;startSize=26;horizontalStack=0;resizeParent=1;resizeParentMax=0;resizeLast=0;collapsible=1;marginBottom=0;whiteSpace=wrap;html=1;" vertex="1" parent="WIyWlLk6GJQsqaUBKTNV-1">
          <mxGeometry x="170" y="570" width="170" height="130" as="geometry" />
        </mxCell>
        <mxCell id="_NMeENpPA0-5k_gsboYM-47" value="- instancia: LogSingleton" style="text;strokeColor=none;fillColor=none;align=left;verticalAlign=top;spacingLeft=4;spacingRight=4;overflow=hidden;rotatable=0;points=[[0,0.5],[1,0.5]];portConstraint=eastwest;whiteSpace=wrap;html=1;" vertex="1" parent="_NMeENpPA0-5k_gsboYM-46">
          <mxGeometry y="26" width="170" height="26" as="geometry" />
        </mxCell>
        <mxCell id="_NMeENpPA0-5k_gsboYM-48" value="" style="line;strokeWidth=1;fillColor=none;align=left;verticalAlign=middle;spacingTop=-1;spacingLeft=3;spacingRight=3;rotatable=0;labelPosition=right;points=[];portConstraint=eastwest;strokeColor=inherit;" vertex="1" parent="_NMeENpPA0-5k_gsboYM-46">
          <mxGeometry y="52" width="170" height="8" as="geometry" />
        </mxCell>
        <mxCell id="_NMeENpPA0-5k_gsboYM-49" value="+ getInstancia(): LogSingleton" style="text;strokeColor=none;fillColor=none;align=left;verticalAlign=top;spacingLeft=4;spacingRight=4;overflow=hidden;rotatable=0;points=[[0,0.5],[1,0.5]];portConstraint=eastwest;whiteSpace=wrap;html=1;" vertex="1" parent="_NMeENpPA0-5k_gsboYM-46">
          <mxGeometry y="60" width="170" height="30" as="geometry" />
        </mxCell>
        <mxCell id="_NMeENpPA0-5k_gsboYM-50" value="+ registrarAcao(acao: String): void" style="text;strokeColor=none;fillColor=none;align=left;verticalAlign=top;spacingLeft=4;spacingRight=4;overflow=hidden;rotatable=0;points=[[0,0.5],[1,0.5]];portConstraint=eastwest;whiteSpace=wrap;html=1;" vertex="1" parent="_NMeENpPA0-5k_gsboYM-46">
          <mxGeometry y="90" width="170" height="40" as="geometry" />
        </mxCell>
        <mxCell id="_NMeENpPA0-5k_gsboYM-51" value="SistemaFachada" style="swimlane;fontStyle=0;childLayout=stackLayout;horizontal=1;startSize=26;fillColor=none;horizontalStack=0;resizeParent=1;resizeParentMax=0;resizeLast=0;collapsible=1;marginBottom=0;whiteSpace=wrap;html=1;" vertex="1" parent="WIyWlLk6GJQsqaUBKTNV-1">
          <mxGeometry x="595" y="181" width="190" height="300" as="geometry" />
        </mxCell>
        <mxCell id="_NMeENpPA0-5k_gsboYM-52" value="+ postarVaga(rep: RepresentanteDeTurma, vaga: Vaga): void" style="text;strokeColor=none;fillColor=none;align=left;verticalAlign=top;spacingLeft=4;spacingRight=4;overflow=hidden;rotatable=0;points=[[0,0.5],[1,0.5]];portConstraint=eastwest;whiteSpace=wrap;html=1;" vertex="1" parent="_NMeENpPA0-5k_gsboYM-51">
          <mxGeometry y="26" width="190" height="54" as="geometry" />
        </mxCell>
        <mxCell id="_NMeENpPA0-5k_gsboYM-55" value="+ alterarVaga(rep: RepresentanteDeTurma, vaga: Vaga): void" style="text;strokeColor=none;fillColor=none;align=left;verticalAlign=top;spacingLeft=4;spacingRight=4;overflow=hidden;rotatable=0;points=[[0,0.5],[1,0.5]];portConstraint=eastwest;whiteSpace=wrap;html=1;" vertex="1" parent="_NMeENpPA0-5k_gsboYM-51">
          <mxGeometry y="80" width="190" height="54" as="geometry" />
        </mxCell>
        <mxCell id="_NMeENpPA0-5k_gsboYM-56" value="+ removerVaga(rep: RepresentanteDeTurma, vaga: Vaga): void" style="text;strokeColor=none;fillColor=none;align=left;verticalAlign=top;spacingLeft=4;spacingRight=4;overflow=hidden;rotatable=0;points=[[0,0.5],[1,0.5]];portConstraint=eastwest;whiteSpace=wrap;html=1;" vertex="1" parent="_NMeENpPA0-5k_gsboYM-51">
          <mxGeometry y="134" width="190" height="54" as="geometry" />
        </mxCell>
        <mxCell id="_NMeENpPA0-5k_gsboYM-57" value="+ cadastrarAluno(rep: RepresentanteDeTurma, aluno: Aluno): void" style="text;strokeColor=none;fillColor=none;align=left;verticalAlign=top;spacingLeft=4;spacingRight=4;overflow=hidden;rotatable=0;points=[[0,0.5],[1,0.5]];portConstraint=eastwest;whiteSpace=wrap;html=1;" vertex="1" parent="_NMeENpPA0-5k_gsboYM-51">
          <mxGeometry y="188" width="190" height="54" as="geometry" />
        </mxCell>
        <mxCell id="_NMeENpPA0-5k_gsboYM-58" value="+ cadastrarRepresentante(coord: Coordenador, rep: RepresentanteDeTurma): void" style="text;strokeColor=none;fillColor=none;align=left;verticalAlign=top;spacingLeft=4;spacingRight=4;overflow=hidden;rotatable=0;points=[[0,0.5],[1,0.5]];portConstraint=eastwest;whiteSpace=wrap;html=1;" vertex="1" parent="_NMeENpPA0-5k_gsboYM-51">
          <mxGeometry y="242" width="190" height="58" as="geometry" />
        </mxCell>
        <mxCell id="_NMeENpPA0-5k_gsboYM-59" value="" style="endArrow=block;dashed=1;endFill=0;endSize=12;html=1;rounded=0;exitX=0.319;exitY=1.091;exitDx=0;exitDy=0;exitPerimeter=0;entryX=0.5;entryY=0;entryDx=0;entryDy=0;" edge="1" parent="WIyWlLk6GJQsqaUBKTNV-1" source="_NMeENpPA0-5k_gsboYM-3" target="_NMeENpPA0-5k_gsboYM-42">
          <mxGeometry width="160" relative="1" as="geometry">
            <mxPoint x="220" y="160" as="sourcePoint" />
            <mxPoint x="129" y="280" as="targetPoint" />
          </mxGeometry>
        </mxCell>
        <mxCell id="_NMeENpPA0-5k_gsboYM-60" value="" style="endArrow=block;endFill=0;endSize=12;html=1;rounded=0;entryX=1;entryY=0.647;entryDx=0;entryDy=0;exitX=-0.015;exitY=0.176;exitDx=0;exitDy=0;entryPerimeter=0;dashed=1;exitPerimeter=0;" edge="1" parent="WIyWlLk6GJQsqaUBKTNV-1" source="_NMeENpPA0-5k_gsboYM-36" target="_NMeENpPA0-5k_gsboYM-39">
          <mxGeometry width="160" relative="1" as="geometry">
            <mxPoint x="220" y="560" as="sourcePoint" />
            <mxPoint x="380" y="560" as="targetPoint" />
          </mxGeometry>
        </mxCell>
        <mxCell id="_NMeENpPA0-5k_gsboYM-74" value="" style="endArrow=block;endFill=1;html=1;edgeStyle=orthogonalEdgeStyle;align=left;verticalAlign=top;rounded=0;exitX=0.5;exitY=0;exitDx=0;exitDy=0;entryX=0.04;entryY=0.998;entryDx=0;entryDy=0;entryPerimeter=0;" edge="1" parent="WIyWlLk6GJQsqaUBKTNV-1" source="_NMeENpPA0-5k_gsboYM-46" target="_NMeENpPA0-5k_gsboYM-37">
          <mxGeometry x="-1" relative="1" as="geometry">
            <mxPoint x="290" y="520" as="sourcePoint" />
            <mxPoint x="355" y="462" as="targetPoint" />
          </mxGeometry>
        </mxCell>
        <mxCell id="_NMeENpPA0-5k_gsboYM-80" value="" style="endArrow=open;endSize=12;dashed=1;html=1;rounded=0;entryX=0.75;entryY=0;entryDx=0;entryDy=0;exitX=0.588;exitY=0.949;exitDx=0;exitDy=0;exitPerimeter=0;" edge="1" parent="WIyWlLk6GJQsqaUBKTNV-1" source="_NMeENpPA0-5k_gsboYM-18" target="_NMeENpPA0-5k_gsboYM-28">
          <mxGeometry width="160" relative="1" as="geometry">
            <mxPoint x="430" y="121" as="sourcePoint" />
            <mxPoint x="480" y="170" as="targetPoint" />
          </mxGeometry>
        </mxCell>
        <mxCell id="_NMeENpPA0-5k_gsboYM-81" value="" style="endArrow=open;endSize=12;dashed=1;html=1;rounded=0;exitX=0.835;exitY=1.034;exitDx=0;exitDy=0;exitPerimeter=0;" edge="1" parent="WIyWlLk6GJQsqaUBKTNV-1" source="_NMeENpPA0-5k_gsboYM-22">
          <mxGeometry width="160" relative="1" as="geometry">
            <mxPoint x="740" y="110" as="sourcePoint" />
            <mxPoint x="745" y="180" as="targetPoint" />
          </mxGeometry>
        </mxCell>
        <mxCell id="_NMeENpPA0-5k_gsboYM-82" value="" style="endArrow=open;endSize=12;dashed=1;html=1;rounded=0;entryX=0;entryY=0.5;entryDx=0;entryDy=0;exitX=0.892;exitY=0.988;exitDx=0;exitDy=0;exitPerimeter=0;" edge="1" parent="WIyWlLk6GJQsqaUBKTNV-1" source="_NMeENpPA0-5k_gsboYM-18" target="_NMeENpPA0-5k_gsboYM-55">
          <mxGeometry width="160" relative="1" as="geometry">
            <mxPoint x="520" y="130" as="sourcePoint" />
            <mxPoint x="520" y="210" as="targetPoint" />
            <Array as="points">
              <mxPoint x="477" y="140" />
              <mxPoint x="550" y="140" />
              <mxPoint x="550" y="288" />
            </Array>
          </mxGeometry>
        </mxCell>
        <mxCell id="_NMeENpPA0-5k_gsboYM-83" value="" style="endArrow=diamondThin;endFill=0;endSize=24;html=1;rounded=0;entryX=0.917;entryY=0.927;entryDx=0;entryDy=0;entryPerimeter=0;exitX=0.5;exitY=0;exitDx=0;exitDy=0;" edge="1" parent="WIyWlLk6GJQsqaUBKTNV-1" source="_NMeENpPA0-5k_gsboYM-23" target="_NMeENpPA0-5k_gsboYM-37">
          <mxGeometry width="160" relative="1" as="geometry">
            <mxPoint x="220" y="330" as="sourcePoint" />
            <mxPoint x="380" y="330" as="targetPoint" />
          </mxGeometry>
        </mxCell>
        <mxCell id="_NMeENpPA0-5k_gsboYM-84" value="" style="endArrow=block;endSize=16;endFill=0;html=1;rounded=0;exitX=0;exitY=0.5;exitDx=0;exitDy=0;entryX=1.006;entryY=0.842;entryDx=0;entryDy=0;entryPerimeter=0;" edge="1" parent="WIyWlLk6GJQsqaUBKTNV-1" source="_NMeENpPA0-5k_gsboYM-16" target="_NMeENpPA0-5k_gsboYM-1">
          <mxGeometry width="160" relative="1" as="geometry">
            <mxPoint x="240" y="190" as="sourcePoint" />
            <mxPoint x="400" y="190" as="targetPoint" />
          </mxGeometry>
        </mxCell>
        <mxCell id="_NMeENpPA0-5k_gsboYM-93" value="" style="endArrow=none;html=1;edgeStyle=orthogonalEdgeStyle;rounded=0;exitX=1;exitY=0.5;exitDx=0;exitDy=0;entryX=0;entryY=0.5;entryDx=0;entryDy=0;" edge="1" parent="WIyWlLk6GJQsqaUBKTNV-1" source="_NMeENpPA0-5k_gsboYM-43" target="_NMeENpPA0-5k_gsboYM-32">
          <mxGeometry relative="1" as="geometry">
            <mxPoint x="200" y="340" as="sourcePoint" />
            <mxPoint x="360" y="340" as="targetPoint" />
          </mxGeometry>
        </mxCell>
        <mxCell id="_NMeENpPA0-5k_gsboYM-97" value="" style="endArrow=none;html=1;edgeStyle=orthogonalEdgeStyle;rounded=0;exitX=1;exitY=0.5;exitDx=0;exitDy=0;entryX=0.006;entryY=0.601;entryDx=0;entryDy=0;entryPerimeter=0;" edge="1" parent="WIyWlLk6GJQsqaUBKTNV-1">
          <mxGeometry relative="1" as="geometry">
            <mxPoint x="477" y="340" as="sourcePoint" />
            <mxPoint x="596.1400000000001" y="340.45399999999995" as="targetPoint" />
          </mxGeometry>
        </mxCell>
        <mxCell id="_NMeENpPA0-5k_gsboYM-98" value="" style="endArrow=none;html=1;edgeStyle=orthogonalEdgeStyle;rounded=0;exitX=1;exitY=0.5;exitDx=0;exitDy=0;entryX=0.735;entryY=1.011;entryDx=0;entryDy=0;entryPerimeter=0;" edge="1" parent="WIyWlLk6GJQsqaUBKTNV-1" source="_NMeENpPA0-5k_gsboYM-50" target="_NMeENpPA0-5k_gsboYM-58">
          <mxGeometry relative="1" as="geometry">
            <mxPoint x="380" y="683" as="sourcePoint" />
            <mxPoint x="450" y="680" as="targetPoint" />
          </mxGeometry>
        </mxCell>
        <mxCell id="_NMeENpPA0-5k_gsboYM-99" value="" style="endArrow=none;html=1;edgeStyle=orthogonalEdgeStyle;rounded=0;exitX=0.622;exitY=0;exitDx=0;exitDy=0;entryX=0.704;entryY=1.004;entryDx=0;entryDy=0;entryPerimeter=0;exitPerimeter=0;" edge="1" parent="WIyWlLk6GJQsqaUBKTNV-1" source="_NMeENpPA0-5k_gsboYM-51" target="_NMeENpPA0-5k_gsboYM-22">
          <mxGeometry relative="1" as="geometry">
            <mxPoint x="710" y="133" as="sourcePoint" />
            <mxPoint x="780" y="130" as="targetPoint" />
          </mxGeometry>
        </mxCell>
        <mxCell id="_NMeENpPA0-5k_gsboYM-100" value="" style="endArrow=none;html=1;edgeStyle=orthogonalEdgeStyle;rounded=0;exitX=1;exitY=0.5;exitDx=0;exitDy=0;entryX=0.25;entryY=0;entryDx=0;entryDy=0;" edge="1" parent="WIyWlLk6GJQsqaUBKTNV-1" source="_NMeENpPA0-5k_gsboYM-18" target="_NMeENpPA0-5k_gsboYM-51">
          <mxGeometry relative="1" as="geometry">
            <mxPoint x="560" y="103" as="sourcePoint" />
            <mxPoint x="630" y="100" as="targetPoint" />
          </mxGeometry>
        </mxCell>
        <mxCell id="_NMeENpPA0-5k_gsboYM-101" value="" style="endArrow=none;html=1;edgeStyle=orthogonalEdgeStyle;rounded=0;exitX=1;exitY=0.5;exitDx=0;exitDy=0;entryX=0;entryY=0;entryDx=0;entryDy=0;" edge="1" parent="WIyWlLk6GJQsqaUBKTNV-1" source="_NMeENpPA0-5k_gsboYM-3" target="_NMeENpPA0-5k_gsboYM-51">
          <mxGeometry relative="1" as="geometry">
            <mxPoint x="320" y="163" as="sourcePoint" />
            <mxPoint x="390" y="160" as="targetPoint" />
            <Array as="points">
              <mxPoint x="270" y="116" />
              <mxPoint x="270" y="160" />
              <mxPoint x="595" y="160" />
            </Array>
          </mxGeometry>
        </mxCell>
      </root>
    </mxGraphModel>
  </diagram>
</mxfile>
